<svg xmlns="http://www.w3.org/2000/svg" viewBox="0 0 128 128" width="128" height="128" role="img">
  <title>farming</title>
  <defs>
    <linearGradient id="bg" x1="0" y1="0" x2="0" y2="1">
      <stop offset="0" stop-color="#3b5a1e"/><stop offset="1" stop-color="#8ab547"/>
    </linearGradient>
    <radialGradient id="vig" cx="0.5" cy="0.42" r="0.75">
      <stop offset="0.55" stop-color="#000" stop-opacity="0"/>
      <stop offset="1" stop-color="#000" stop-opacity="0.35"/>
    </radialGradient>
  </defs>
  <rect width="128" height="128" fill="url(#bg)"/>
  <path d="M0 128V92q32-6 64 0t64 0V128z" fill="#4d7024"/><circle cx="102" cy="26" r="24.7" fill="#ffe9a8" opacity=".35"/><circle cx="102" cy="26" r="13" fill="#ffd166"/><path d="M40 100V52" fill="none" stroke="#e9c46a" stroke-width="6" stroke-linecap="round" stroke-linejoin="round"/><path d="M40 66q-14-6-14-18 14 0 14 12" fill="none" stroke="#9bc53d" stroke-width="5" stroke-linecap="round" stroke-linejoin="round"/><path d="M64 100V44" fill="none" stroke="#e9c46a" stroke-width="6" stroke-linecap="round" stroke-linejoin="round"/><path d="M64 58q14-6 14-18-14 0-14 12" fill="none" stroke="#9bc53d" stroke-width="5" stroke-linecap="round" stroke-linejoin="round"/><path d="M88 100V56" fill="none" stroke="#e9c46a" stroke-width="6" stroke-linecap="round" stroke-linejoin="round"/><path d="M88 70q-12-6-12-16 12 0 12 10" fill="none" stroke="#9bc53d" stroke-width="5" stroke-linecap="round" stroke-linejoin="round"/>
  <rect width="128" height="128" fill="url(#vig)"/>
</svg>
